<svg xmlns="http://www.w3.org/2000/svg" viewBox="0 0 1137.5 1025" height="1025" width="1137.5"><defs><clipPath id="a"><path d="M0 820h910V0H0v820z"/></clipPath></defs><g clip-path="url(#a)" transform="matrix(1.25 0 0 -1.25 0 1025)" fill="#eee"><path d="M258.01 588.78c0 85.28 108.396 154.43 242.058 154.43 31.222 0 61.06-3.774 88.463-10.642-48.124 23.742-108.487 37.878-174.041 37.878-157.29 0-284.758-81.327-284.758-181.667 0-100.333 127.469-181.684 284.758-181.684 65.578 0 125.962 14.151 174.095 37.914-27.416-6.877-57.275-10.654-88.517-10.654-133.662 0-242.058 69.134-242.058 154.424"/><path d="M430.24 676.552c-1.73 3.418-4.918 5.13-9.566 5.13-9.83 0-17.86-11.962-24.083-35.886-4.357-16.758-6.53-29.848-6.53-39.264 0-6.754 1.312-11.462 3.936-14.127 2.623-2.67 6.192-4 10.697-4 5.176 0 8.774 1.437 10.804 4.31 2.025 2.872 5.064 10.898 9.112 24.071 3.077 9.836 5.213 18.775 6.41 26.82 1.2 8.043 1.807 14.941 1.807 20.694 0 4.748-.867 8.832-2.588 12.252m23.18-74.394c-5.775-19.339-15.753-36.472-29.93-51.393-12.306-13-26.15-22.759-41.53-29.254-8.704-3.669-20.22-6.875-34.544-9.628l-1.353 6.494c18.231 6.506 33.575 17.298 46.03 32.388 7.723 9.252 13.723 19.296 18.003 30.137-2.628-1.253-4.877-2.15-6.754-2.69-1.876-.546-4.392-.814-7.54-.814-9.005 0-16.995 3.497-23.969 10.502-6.982 7.005-10.466 17.34-10.466 31.01 0 19.26 5.644 35.867 16.935 49.83 11.292 13.962 24.251 20.943 38.884 20.943 13.95 0 24.303-5.003 31.06-15.007 6.748-10.003 10.126-23.549 10.126-40.633 0-10.176-1.65-20.8-4.952-31.885m20.849 5.297c13.8 17.583 28.81 26.38 45.017 26.38 8.625 0 15.13-2.357 19.524-7.064 4.383-4.713 6.582-10.026 6.582-15.945 0-5.503-1.47-9.86-4.394-13.065-2.926-3.213-6.376-4.816-10.35-4.816-3.004 0-5.932 1.147-8.782 3.439-2.848 2.29-4.274 5.693-4.274 10.193 0 1.828.165 3.246.505 4.249.337.997 1.067 2.54 2.198 4.63l1.013 1.876c.523.915.879 1.622 1.069 2.12.189.499.286 1.044.286 1.626 0 1.418-.606 2.523-1.808 3.319-1.195.789-2.621 1.186-4.272 1.186-8.251 0-16.093-9.503-23.518-28.512-6.603-16.923-9.902-31.592-9.902-44.013 0-5.664.974-10.591 2.919-14.76 2.929-6.41 7.729-9.615 14.408-9.615 4.95 0 9.692 2.018 14.234 6.056 4.536 4.048 9.06 9.733 13.559 17.07l6.42-4.748c-7.434-11.503-13.548-19.47-18.346-23.887-8.18-7.42-17.708-11.124-28.583-11.124-8.251 0-15.962 3.253-23.127 9.746-7.166 6.507-10.744 16.503-10.744 30.014 0 19.754 6.784 38.299 20.366 55.645m130.871 78.365c3.004-3.337 4.507-7.38 4.507-12.129 0-4.755-1.503-8.822-4.507-12.194-3.004-3.377-6.638-5.063-10.91-5.063-4.28 0-7.936 1.686-10.975 5.063-3.041 3.372-4.553 7.44-4.553 12.194 0 4.748 1.512 8.792 4.553 12.128 3.039 3.335 6.695 5.004 10.976 5.004 4.27 0 7.905-1.669 10.909-5.004M551.013 540.4c.52 2.576 1.312 5.996 2.362 10.258l13.842 57.515c.15.663.28 1.33.394 1.994.112.664.172 1.293.172 1.881 0 3.414-.978 5.538-2.928 6.376-1.954.831-5.516 1.376-10.69 1.625v6.75c4.345.334 10.667 1.022 18.959 2.066 8.287 1.04 14.157 1.936 17.614 2.69l9.902 2.126-17.893-72.899c-1.5-6.254-2.516-10.587-3.04-13.009-1.354-6.16-2.021-10.163-2.021-12.003 0-1.829.373-3.015 1.12-3.562a4.106 4.106 0 0 1 2.48-.807c2.324 0 5.209 2.21 8.663 6.624a101.073 101.073 0 0 1 9.118 13.88l5.06-3.632c-7.498-12.254-13.242-20.505-17.217-24.755-6.531-7.006-13.505-10.495-20.933-10.495-4.201 0-7.974 1.436-11.308 4.31-3.336 2.872-5.007 7.265-5.007 13.19 0 2.076.448 5.377 1.35 9.877m169.007 57.08c.132-1.53.32-3.057.426-4.587 3.338-59.557-39.83-112.792-107.305-143.459-.461-2.054-.616-4.084-1.244-6.127-41.391-135.61-165.006-242.238-319.297-293.918 177.718 32.093 339.278 117.646 403.913 243.388 36.506 70.998 45.252 143.266 23.507 204.703"/></g></svg>